<svg xmlns="http://www.w3.org/2000/svg" version="1.1" xmlns:xlink="http://www.w3.org/1999/xlink" xmlns:svgjs="http://svgjs.dev/svgjs" width="1000" height="1000" viewBox="0 0 1000 1000"><rect width="1000" height="1000" fill="#000000"></rect><g transform="matrix(0.7,0,0,0.7,149.57575757575756,282.1265587044535)"><svg viewBox="0 0 396 247" data-background-color="#333366" preserveAspectRatio="xMidYMid meet" height="623" width="1000" xmlns="http://www.w3.org/2000/svg" xmlns:xlink="http://www.w3.org/1999/xlink"><g id="tight-bounds" transform="matrix(1,0,0,1,0.2400000000000091,-0.09999999999999432)"><svg viewBox="0 0 395.52 247.2" height="247.2" width="395.52"><g><svg></svg></g><g><svg viewBox="0 0 395.52 247.2" height="247.2" width="395.52"><g transform="matrix(1,0,0,1,75.54432,67.62335267175573)"><svg viewBox="0 0 244.43135999999998 111.95329465648852" height="111.95329465648852" width="244.43135999999998"><g><svg viewBox="0 0 244.43135999999998 111.95329465648852" height="111.95329465648852" width="244.43135999999998"><g><svg viewBox="0 0 244.43135999999998 111.95329465648852" height="111.95329465648852" width="244.43135999999998"><g id="textblocktransform"><svg viewBox="0 0 244.43135999999998 111.95329465648852" height="111.95329465648852" width="244.43135999999998" id="textblock"><g><svg viewBox="0 0 244.43135999999998 111.95329465648852" height="111.95329465648852" width="244.43135999999998"><g><svg viewBox="0 0 244.43135999999998 111.95329465648852" height="111.95329465648852" width="244.43135999999998"><g transform="matrix(1,0,0,1,0,0)"><svg width="244.43135999999998" viewBox="88.83000183105469 -36.75 176.84999084472656 78" height="111.95329465648852" data-palette-color="#ffffff"><svg></svg><svg></svg><g class="undefined-text-0" data-fill-palette-color="primary" id="text-0"><path xmlns="http://www.w3.org/2000/svg" d="M98.08 0v0h-7.45c-0.633 0-1.09-0.143-1.37-0.43-0.287-0.28-0.43-0.737-0.43-1.37v0-32.4c0-0.633 0.143-1.093 0.43-1.38 0.28-0.28 0.737-0.42 1.37-0.42v0h8.05c0.533 0 0.977 0.117 1.33 0.35 0.347 0.233 0.67 0.617 0.97 1.15v0l4.5 8.15c0.167 0.3 0.31 0.517 0.43 0.65 0.113 0.133 0.27 0.2 0.47 0.2v0h0.45c0.2 0 0.36-0.067 0.48-0.2 0.113-0.133 0.253-0.35 0.42-0.65v0l4.45-8.15c0.3-0.533 0.627-0.917 0.98-1.15 0.347-0.233 0.787-0.35 1.32-0.35v0h8.1c0.633 0 1.093 0.14 1.38 0.42 0.28 0.287 0.42 0.747 0.42 1.38v0 32.4c0 0.633-0.14 1.09-0.42 1.37-0.287 0.287-0.747 0.43-1.38 0.43v0h-7.7c-0.633 0-1.09-0.143-1.37-0.43-0.287-0.28-0.43-0.737-0.43-1.37v0-17.6l-2.95 5.45c-0.3 0.567-0.657 0.973-1.07 1.22-0.42 0.253-0.947 0.38-1.58 0.38v0h-2c-0.633 0-1.157-0.127-1.57-0.38-0.42-0.247-0.78-0.653-1.08-1.22v0l-2.95-5.45v17.6c0 0.633-0.14 1.09-0.42 1.37-0.287 0.287-0.747 0.43-1.38 0.43zM144.33-25.5v0l-2.35 7.6h7.85l-2.35-7.6c-0.133-0.3-0.273-0.517-0.42-0.65-0.153-0.133-0.33-0.2-0.53-0.2v0h-1.25c-0.2 0-0.373 0.067-0.52 0.2-0.153 0.133-0.297 0.35-0.43 0.65zM141.48-8.8v7c0 0.633-0.14 1.09-0.42 1.37-0.287 0.287-0.747 0.43-1.38 0.43v0h-7.35c-0.633 0-1.09-0.143-1.37-0.43-0.287-0.28-0.43-0.737-0.43-1.37v0-13.2c0-1 0.16-2.15 0.48-3.45 0.313-1.3 0.803-2.817 1.47-4.55v0l4.35-11.35c0.2-0.567 0.51-0.983 0.93-1.25 0.413-0.267 0.953-0.4 1.62-0.4v0h13.45c0.633 0 1.16 0.133 1.58 0.4 0.413 0.267 0.72 0.683 0.92 1.25v0l4.35 11.35c0.667 1.733 1.16 3.25 1.48 4.55 0.313 1.3 0.47 2.45 0.47 3.45v0 13.2c0 0.633-0.14 1.09-0.42 1.37-0.287 0.287-0.747 0.43-1.38 0.43v0h-7.55c-0.667 0-1.157-0.143-1.47-0.43-0.32-0.28-0.48-0.737-0.48-1.37v0-7zM182.83-27h-3.75v6.4h3.75c0.867 0 1.45-0.227 1.75-0.68 0.3-0.447 0.45-1.003 0.45-1.67v0-1.7c0-0.667-0.15-1.227-0.45-1.68-0.3-0.447-0.883-0.67-1.75-0.67zM177.28 0v0h-7.7c-0.633 0-1.09-0.143-1.37-0.43-0.287-0.28-0.43-0.737-0.43-1.37v0-32.4c0-0.633 0.143-1.093 0.43-1.38 0.28-0.28 0.737-0.42 1.37-0.42v0h16.65c3.733 0 6.31 0.773 7.73 2.32 1.413 1.553 2.12 3.563 2.12 6.03v0 2.3c0 1.4-0.207 2.59-0.62 3.57-0.42 0.987-1.147 1.697-2.18 2.13v0c1.8 0.2 3.26 0.933 4.38 2.2 1.113 1.267 1.67 2.95 1.67 5.05v0 10.6c0 0.633-0.14 1.09-0.42 1.37-0.287 0.287-0.747 0.43-1.38 0.43v0h-7.75c-0.633 0-1.09-0.143-1.37-0.43-0.287-0.28-0.43-0.737-0.43-1.37v0-7.65c0-0.733-0.14-1.277-0.42-1.63-0.287-0.347-0.78-0.52-1.48-0.52v0h-7v9.8c0 0.633-0.14 1.09-0.42 1.37-0.287 0.287-0.747 0.43-1.38 0.43zM227.23 0h-21.3c-0.633 0-1.093-0.143-1.38-0.43-0.28-0.28-0.42-0.737-0.42-1.37v0-5.95c0-0.633 0.14-1.093 0.42-1.38 0.287-0.28 0.747-0.42 1.38-0.42v0h4.95v-16.8h-4.95c-0.633 0-1.093-0.143-1.38-0.43-0.28-0.28-0.42-0.737-0.42-1.37v0-6.05c0-0.633 0.14-1.093 0.42-1.38 0.287-0.28 0.747-0.42 1.38-0.42v0h21.3c0.633 0 1.09 0.14 1.37 0.42 0.287 0.287 0.43 0.747 0.43 1.38v0 6.05c0 0.633-0.143 1.09-0.43 1.37-0.28 0.287-0.737 0.43-1.37 0.43v0h-4.85v16.8h4.85c0.633 0 1.09 0.14 1.37 0.42 0.287 0.287 0.43 0.747 0.43 1.38v0 5.95c0 0.633-0.143 1.09-0.43 1.37-0.28 0.287-0.737 0.43-1.37 0.43zM265.68-26.5v17.05c0 1.533-0.223 2.923-0.67 4.17-0.453 1.253-1.257 2.32-2.41 3.2-1.147 0.887-2.73 1.58-4.75 2.08-2.013 0.5-4.57 0.75-7.67 0.75v0c-3.1 0-5.667-0.25-7.7-0.75-2.033-0.5-3.627-1.193-4.78-2.08-1.147-0.88-1.947-1.947-2.4-3.2-0.447-1.247-0.67-2.637-0.67-4.17v0-17.05c0-1.533 0.223-2.927 0.67-4.18 0.453-1.247 1.253-2.32 2.4-3.22 1.153-0.9 2.747-1.6 4.78-2.1 2.033-0.5 4.6-0.75 7.7-0.75v0c3.1 0 5.657 0.25 7.67 0.75 2.02 0.5 3.603 1.2 4.75 2.1 1.153 0.9 1.957 1.973 2.41 3.22 0.447 1.253 0.67 2.647 0.67 4.18zM245.98-24.7v13.45c0 0.667 0.25 1.223 0.75 1.67 0.5 0.453 1.65 0.68 3.45 0.68v0c1.8 0 2.95-0.227 3.45-0.68 0.5-0.447 0.75-1.003 0.75-1.67v0-13.45c0-0.633-0.25-1.177-0.75-1.63-0.5-0.447-1.65-0.67-3.45-0.67v0c-1.8 0-2.95 0.223-3.45 0.67-0.5 0.453-0.75 0.997-0.75 1.63z" fill="#ffffff" fill-rule="nonzero" stroke="none" stroke-width="1" stroke-linecap="butt" stroke-linejoin="miter" stroke-miterlimit="10" stroke-dasharray="" stroke-dashoffset="0" font-family="none" font-weight="none" font-size="none" text-anchor="none" style="mix-blend-mode: normal" data-fill-palette-color="primary" opacity="1"></path><path xmlns="http://www.w3.org/2000/svg" d="M118.1 6.3v24.75c0 1.533-0.217 2.923-0.65 4.17-0.433 1.253-1.19 2.32-2.27 3.2-1.087 0.887-2.58 1.58-4.48 2.08-1.9 0.5-4.317 0.75-7.25 0.75v0c-2.9 0-5.29-0.25-7.17-0.75-1.887-0.5-3.37-1.193-4.45-2.08-1.087-0.88-1.837-1.947-2.25-3.2-0.42-1.247-0.63-2.637-0.63-4.17v0-8.1c0-0.633 0.143-1.093 0.43-1.38 0.28-0.28 0.737-0.42 1.37-0.42v0h7.25c0.633 0 1.093 0.14 1.38 0.42 0.28 0.287 0.42 0.747 0.42 1.38v0 6.1c0 0.667 0.21 1.223 0.63 1.67 0.413 0.453 1.387 0.68 2.92 0.68v0c1.433 0 2.343-0.227 2.73-0.68 0.38-0.447 0.57-1.003 0.57-1.67v0-22.75c0-0.633 0.143-1.093 0.43-1.38 0.28-0.28 0.737-0.42 1.37-0.42v0h7.85c0.633 0 1.093 0.14 1.38 0.42 0.28 0.287 0.42 0.747 0.42 1.38zM149.75 40.5v0h-23.2c-0.633 0-1.093-0.143-1.38-0.43-0.28-0.28-0.42-0.737-0.42-1.37v0-32.4c0-0.633 0.14-1.093 0.42-1.38 0.287-0.28 0.747-0.42 1.38-0.42v0h23.2c0.633 0 1.09 0.14 1.37 0.42 0.287 0.287 0.43 0.747 0.43 1.38v0 5.85c0 0.633-0.143 1.09-0.43 1.37-0.28 0.287-0.737 0.43-1.37 0.43v0h-13.8v3.85h9.75c0.633 0 1.09 0.14 1.37 0.42 0.287 0.287 0.43 0.747 0.43 1.38v0 5.35c0 0.633-0.143 1.09-0.43 1.37-0.28 0.287-0.737 0.43-1.37 0.43v0h-9.75v4.3h13.8c0.633 0 1.09 0.14 1.37 0.42 0.287 0.287 0.43 0.747 0.43 1.38v0 5.85c0 0.633-0.143 1.09-0.43 1.37-0.28 0.287-0.737 0.43-1.37 0.43zM176.1 40.5v0h-16.85c-0.633 0-1.093-0.143-1.38-0.43-0.28-0.28-0.42-0.737-0.42-1.37v0-32.4c0-0.633 0.14-1.093 0.42-1.38 0.287-0.28 0.747-0.42 1.38-0.42v0h16.85c4.167 0 7.257 0.833 9.27 2.5 2.02 1.667 3.03 4.233 3.03 7.7v0 15.6c0 3.467-1.01 6.033-3.03 7.7-2.013 1.667-5.103 2.5-9.27 2.5zM174.75 14.05h-5.95v17h5.95c0.8 0 1.393-0.2 1.78-0.6 0.38-0.4 0.57-1.017 0.57-1.85v0-12.15c0-0.833-0.19-1.443-0.57-1.83-0.387-0.38-0.98-0.57-1.78-0.57zM204.05 40.5v0h-7.5c-0.633 0-1.09-0.143-1.37-0.43-0.287-0.28-0.43-0.737-0.43-1.37v0-32.4c0-0.633 0.143-1.093 0.43-1.38 0.28-0.28 0.737-0.42 1.37-0.42v0h5.2c0.633 0 1.177 0.1 1.63 0.3 0.447 0.2 0.887 0.55 1.32 1.05v0l9.7 11.1v-10.65c0-0.633 0.143-1.093 0.43-1.38 0.28-0.28 0.737-0.42 1.37-0.42v0h7.5c0.633 0 1.093 0.14 1.38 0.42 0.28 0.287 0.42 0.747 0.42 1.38v0 32.4c0 0.633-0.14 1.09-0.42 1.37-0.287 0.287-0.747 0.43-1.38 0.43v0h-7.5c-0.633 0-1.09-0.143-1.37-0.43-0.287-0.28-0.43-0.737-0.43-1.37v0-6.15l-8.55-10.35v16.5c0 0.633-0.14 1.09-0.42 1.37-0.287 0.287-0.747 0.43-1.38 0.43zM245.45 15v0l-2.35 7.6h7.85l-2.35-7.6c-0.133-0.3-0.273-0.517-0.42-0.65-0.153-0.133-0.33-0.2-0.53-0.2v0h-1.25c-0.2 0-0.373 0.067-0.52 0.2-0.153 0.133-0.297 0.35-0.43 0.65zM242.6 31.7v7c0 0.633-0.14 1.09-0.42 1.37-0.287 0.287-0.747 0.43-1.38 0.43v0h-7.35c-0.633 0-1.09-0.143-1.37-0.43-0.287-0.28-0.43-0.737-0.43-1.37v0-13.2c0-1 0.16-2.15 0.48-3.45 0.313-1.3 0.803-2.817 1.47-4.55v0l4.35-11.35c0.2-0.567 0.51-0.983 0.93-1.25 0.413-0.267 0.953-0.4 1.62-0.4v0h13.45c0.633 0 1.16 0.133 1.58 0.4 0.413 0.267 0.72 0.683 0.92 1.25v0l4.35 11.35c0.667 1.733 1.16 3.25 1.48 4.55 0.313 1.3 0.47 2.45 0.47 3.45v0 13.2c0 0.633-0.14 1.09-0.42 1.37-0.287 0.287-0.747 0.43-1.38 0.43v0h-7.55c-0.667 0-1.157-0.143-1.47-0.43-0.32-0.28-0.48-0.737-0.48-1.37v0-7z" fill="#ffffff" fill-rule="nonzero" stroke="none" stroke-width="1" stroke-linecap="butt" stroke-linejoin="miter" stroke-miterlimit="10" stroke-dasharray="" stroke-dashoffset="0" font-family="none" font-weight="none" font-size="none" text-anchor="none" style="mix-blend-mode: normal" data-fill-palette-color="secondary" opacity="1"></path></g></svg></g></svg></g></svg></g></svg></g></svg></g></svg></g></svg></g><path d="M154.039 61.623L154.039 1.427 395.52 1.427 395.52 245.773 154.039 245.773 154.039 185.577 158.713 185.577 158.713 241.099 390.846 241.099 390.846 6.101 158.713 6.101 158.713 61.623Z" fill="#ffffff" stroke="transparent" data-fill-palette-color="primary"></path></svg></g><defs></defs></svg><rect width="395.52" height="247.2" fill="none" stroke="none" visibility="hidden"></rect></g></svg></g></svg>